# Blender v2.93.1 OBJ File: ''
# www.blender.org
mtllib ramp02.mtl
o Torus
v 0.000001 -4.162021 3.797276
v 0.814042 -3.945094 3.774477
v -1.628081 -2.542858 3.627096
v -1.409960 -3.352439 3.712186
v -0.814040 -3.945094 3.774477
v 0.000001 -4.162021 2.095466
v 0.814041 -3.945094 2.118266
v -1.628081 -2.542857 2.265647
v -1.409960 -3.352439 2.180557
v -0.814040 -3.945094 2.118266
v 0.000000 -3.808194 0.430847
v 0.814041 -3.600748 0.498250
v -1.628082 -2.259797 0.933952
v -1.409960 -3.033995 0.682400
v -0.814041 -3.600748 0.498250
v 0.000000 -3.116008 -1.123831
v 0.814041 -2.927109 -1.014770
v -1.628082 -1.706047 -0.309790
v -1.409960 -2.411027 -0.716811
v -0.814041 -2.927109 -1.014770
v 0.000000 -2.115708 -2.500625
v 0.814041 -1.953612 -2.354673
v -1.628082 -0.905807 -1.411226
v -1.409960 -1.510758 -1.955926
v -0.814041 -1.953612 -2.354673
v -0.000000 -0.851016 -3.639359
v 0.814041 -0.722807 -3.462895
v -1.628082 0.105946 -2.322213
v -1.409960 -0.372535 -2.980786
v -0.814041 -0.722807 -3.462895
v -0.000000 0.622792 -4.490262
v 0.814041 0.711510 -4.290998
v -1.628082 1.284993 -3.002935
v -1.409961 0.953892 -3.746599
v -0.814041 0.711510 -4.290998
v -0.000000 2.241307 -5.016150
v 0.814040 2.286657 -4.802794
v -1.628082 2.579804 -3.423645
v -1.409961 2.410556 -4.219897
v -0.814041 2.286657 -4.802794
v -0.000001 3.933794 -5.194037
v 0.814040 3.933794 -4.975916
v -1.628082 3.933794 -3.565955
v -1.409961 3.933794 -4.379996
v -0.814042 3.933794 -4.975916
v 0.291930 -3.827168 2.396969
v 1.105971 -3.610241 2.419769
v -0.522111 -3.610241 2.419769
v 0.291930 -3.473341 0.732350
v 0.291930 -2.781155 -0.822328
v 1.105971 -2.592256 -0.713267
v -0.522111 -2.592256 -0.713267
v 0.291929 -1.780855 -2.199122
v 0.291929 -0.516163 -3.337856
v 1.105970 -0.387954 -3.161391
v -0.522112 -0.387954 -3.161391
v 0.291929 0.957646 -4.188759
v 0.291929 2.576160 -4.714646
v 1.105970 2.621510 -4.501291
v -0.522112 2.621510 -4.501291
v 0.291929 4.268647 -4.892534
v -1.336152 -2.208004 2.567150
v -1.118030 -3.017586 2.482059
v 1.105971 -3.265895 0.799754
v -1.336152 -1.924943 1.235455
v -1.336152 -1.371194 -0.008287
v -1.118031 -2.076174 -0.415307
v 1.105970 -1.618759 -2.053170
v -1.336152 -0.570954 -1.109723
v -1.336153 0.440799 -2.020709
v -1.118031 -0.037681 -2.679282
v 1.105970 1.046363 -3.989495
v -1.336153 1.619846 -2.701432
v -1.336153 2.914658 -3.122142
v -1.118031 2.745409 -3.918394
v 1.105970 4.268647 -4.674413
v -1.336153 4.268647 -3.264452
v -1.118030 -2.699142 0.983903
v -1.118031 -1.175905 -1.654423
v -1.118031 1.288746 -3.445096
v -1.118031 4.268647 -4.078493
v -0.522111 -3.265895 0.799754
v -0.522111 -1.618759 -2.053170
v -0.522112 1.046363 -3.989495
v -0.522112 4.268647 -4.674413
v 0.291930 -3.827168 4.098780
v 1.105971 -3.610241 4.075980
v -0.522111 -3.610241 4.075980
v -1.336152 -2.208004 3.928599
v -1.118030 -3.017586 4.013690
vt 0.128262 0.733150
vt 0.222043 0.733150
vt 0.222043 0.967602
vt 0.128262 0.967602
vt 0.128262 0.029794
vt 0.222043 0.029794
vt 0.222043 0.264246
vt 0.128262 0.264246
vt 0.222043 0.498698
vt 0.128262 0.498698
vt 0.315824 0.733150
vt 0.315824 0.967602
vt 0.315824 0.029794
vt 0.315824 0.264246
vt 0.315824 0.498698
vt 0.409605 0.733150
vt 0.409605 0.967602
vt 0.409605 0.029794
vt 0.409605 0.264246
vt 0.409605 0.498698
vt 0.503385 0.733150
vt 0.503385 0.967602
vt 0.503385 0.029794
vt 0.503385 0.264246
vt 0.503385 0.498698
vt 0.597166 0.733150
vt 0.597166 0.967602
vt 0.597166 0.029794
vt 0.597166 0.264246
vt 0.597166 0.498698
vt 0.690947 0.733150
vt 0.690947 0.967602
vt 0.690947 0.029794
vt 0.690947 0.264246
vt 0.690947 0.498698
vt 0.784728 0.733150
vt 0.784728 0.967602
vt 0.784728 0.029794
vt 0.784728 0.264246
vt 0.784728 0.498698
vt 0.878509 0.733150
vt 0.878509 0.967602
vt 0.878509 0.029794
vt 0.878509 0.264246
vt 0.878509 0.498698
vt 0.128262 0.733150
vt 0.128262 0.967602
vt 0.222043 0.967602
vt 0.222043 0.733150
vt 0.128262 0.029794
vt 0.128262 0.264246
vt 0.222043 0.264246
vt 0.222043 0.029794
vt 0.128262 0.498698
vt 0.222043 0.498698
vt 0.315824 0.967602
vt 0.315824 0.733150
vt 0.315824 0.264246
vt 0.315824 0.029794
vt 0.315824 0.498698
vt 0.409605 0.967602
vt 0.409605 0.733150
vt 0.409605 0.264246
vt 0.409605 0.029794
vt 0.409605 0.498698
vt 0.503385 0.967602
vt 0.503385 0.733150
vt 0.503385 0.264246
vt 0.503385 0.029794
vt 0.503385 0.498698
vt 0.597166 0.967602
vt 0.597166 0.733150
vt 0.597166 0.264246
vt 0.597166 0.029794
vt 0.597166 0.498698
vt 0.690947 0.967602
vt 0.690947 0.733150
vt 0.690947 0.264246
vt 0.690947 0.029794
vt 0.690947 0.498698
vt 0.784728 0.967602
vt 0.784728 0.733150
vt 0.784728 0.264246
vt 0.784728 0.029794
vt 0.784728 0.498698
vt 0.878509 0.967602
vt 0.878509 0.733150
vt 0.878509 0.264246
vt 0.878509 0.029794
vt 0.878509 0.498698
vn 0.0000 -1.0000 0.0000
vn 0.0000 -0.9945 -0.1045
vn 0.2588 -0.9606 -0.1010
vn 0.2575 -0.9663 -0.0000
vn -0.9656 -0.2601 0.0000
vn -0.9659 -0.2574 -0.0271
vn -0.8586 -0.5099 -0.0536
vn -0.8573 -0.5148 0.0000
vn -0.4927 -0.8654 -0.0910
vn -0.4906 -0.8714 0.0000
vn 0.0000 -0.9511 -0.3090
vn 0.2588 -0.9186 -0.2985
vn -0.9659 -0.2462 -0.0800
vn -0.8586 -0.4876 -0.1584
vn -0.4927 -0.8276 -0.2689
vn -0.0000 -0.8660 -0.5000
vn 0.2588 -0.8365 -0.4830
vn -0.9659 -0.2241 -0.1294
vn -0.8586 -0.4440 -0.2564
vn -0.4927 -0.7536 -0.4351
vn -0.0000 -0.7431 -0.6691
vn 0.2588 -0.7178 -0.6463
vn -0.9659 -0.1923 -0.1732
vn -0.8586 -0.3810 -0.3431
vn -0.4927 -0.6467 -0.5823
vn 0.0000 -0.5878 -0.8090
vn 0.2588 -0.5678 -0.7815
vn -0.9659 -0.1521 -0.2094
vn -0.8586 -0.3014 -0.4148
vn -0.4927 -0.5115 -0.7040
vn -0.0000 -0.4067 -0.9135
vn 0.2588 -0.3929 -0.8824
vn -0.9659 -0.1053 -0.2364
vn -0.8586 -0.2085 -0.4684
vn -0.4927 -0.3539 -0.7950
vn 0.0000 -0.2079 -0.9781
vn 0.2588 -0.2008 -0.9448
vn -0.9659 -0.0538 -0.2532
vn -0.8586 -0.1066 -0.5015
vn -0.4927 -0.1809 -0.8512
vn 0.0000 -0.1045 -0.9945
vn 0.2575 -0.1010 -0.9610
vn -0.9656 -0.0272 -0.2587
vn -0.8573 -0.0538 -0.5120
vn -0.4906 -0.0911 -0.8666
vn -0.0000 1.0000 -0.0000
vn -0.2575 0.9663 -0.0000
vn -0.2588 0.9606 0.1010
vn -0.0000 0.9945 0.1045
vn 0.9656 0.2601 -0.0000
vn 0.8573 0.5148 -0.0000
vn 0.8586 0.5099 0.0536
vn 0.9659 0.2574 0.0271
vn 0.4906 0.8714 0.0000
vn 0.4927 0.8654 0.0910
vn -0.2588 0.9186 0.2985
vn -0.0000 0.9511 0.3090
vn 0.8586 0.4876 0.1584
vn 0.9659 0.2462 0.0800
vn 0.4927 0.8276 0.2689
vn -0.2588 0.8365 0.4830
vn 0.0000 0.8660 0.5000
vn 0.8586 0.4440 0.2564
vn 0.9659 0.2241 0.1294
vn 0.4927 0.7536 0.4351
vn -0.2588 0.7178 0.6463
vn 0.0000 0.7431 0.6691
vn 0.8586 0.3810 0.3431
vn 0.9659 0.1923 0.1732
vn 0.4927 0.6467 0.5823
vn -0.2588 0.5678 0.7815
vn 0.0000 0.5878 0.8090
vn 0.8586 0.3014 0.4148
vn 0.9659 0.1521 0.2094
vn 0.4927 0.5115 0.7040
vn -0.2588 0.3929 0.8824
vn 0.0000 0.4067 0.9135
vn 0.8586 0.2085 0.4684
vn 0.9659 0.1053 0.2364
vn 0.4927 0.3539 0.7950
vn -0.2588 0.2008 0.9448
vn 0.0000 0.2079 0.9781
vn 0.8586 0.1066 0.5015
vn 0.9659 0.0538 0.2532
vn 0.4927 0.1809 0.8512
vn -0.2575 0.1010 0.9610
vn 0.0000 0.1045 0.9945
vn 0.8573 0.0538 0.5120
vn 0.9656 0.0272 0.2587
vn 0.4906 0.0911 0.8666
vn -0.0587 0.6957 -0.7159
vn 0.0869 0.6237 -0.7768
vn 0.2176 0.5415 -0.8121
vn -0.3309 -0.4556 0.8264
vn -0.2979 -0.4821 0.8239
vn -0.5710 -0.2155 0.7922
vn -0.5405 -0.2516 0.8028
vn 0.8182 -0.2451 -0.5201
vn 0.8125 -0.2236 -0.5383
vn 0.8330 -0.3195 -0.4517
vn 0.8343 -0.3289 -0.4425
vn -0.5405 0.7721 -0.3341
vn -0.5710 0.7653 -0.2971
vn -0.2979 0.7690 -0.5656
vn -0.3309 0.7742 -0.5395
vn 0.8393 -0.4041 -0.3638
vn -0.8343 0.3289 0.4425
vn -0.8330 0.3195 0.4517
vn -0.8125 0.2236 0.5383
vn -0.8182 0.2451 0.5201
vn 0.8182 -0.5428 -0.1894
vn 0.8125 -0.5588 -0.1661
vn 0.7719 -0.6343 -0.0430
vn 0.7873 -0.6108 -0.0840
vn -0.6578 -0.0988 0.7466
vn -0.8393 0.4041 0.3638
vn 0.2176 -0.7510 0.6234
vn 0.0869 -0.7074 0.7015
vn -0.0587 -0.6393 0.7668
vn 0.7538 -0.6571 0.0000
vn -0.7873 0.6108 0.0840
vn -0.7719 0.6343 0.0430
vn -0.8125 0.5588 0.1661
vn -0.8182 0.5428 0.1894
vn 0.7538 -0.0687 -0.6535
vn 0.7719 -0.1091 -0.6263
vn 0.7873 -0.1474 -0.5986
vn -0.7538 0.6571 0.0000
vn -0.7873 0.1474 0.5986
vn -0.7719 0.1091 0.6263
vn -0.7538 0.0687 0.6535
vn 0.8330 -0.4826 -0.2705
vn 0.8343 -0.4745 -0.2808
vn -0.8343 0.4745 0.2808
vn -0.8330 0.4826 0.2705
vn -0.6578 0.7322 -0.1763
usemtl None
s 1
f 1/1/1 6/2/2 7/3/3 2/4/4
f 3/5/5 8/6/6 9/7/7 4/8/8
f 4/8/8 9/7/7 10/9/9 5/10/10
f 5/10/10 10/9/9 6/2/2 1/1/1
f 6/2/2 11/11/11 12/12/12 7/3/3
f 8/6/6 13/13/13 14/14/14 9/7/7
f 9/7/7 14/14/14 15/15/15 10/9/9
f 10/9/9 15/15/15 11/11/11 6/2/2
f 11/11/11 16/16/16 17/17/17 12/12/12
f 13/13/13 18/18/18 19/19/19 14/14/14
f 14/14/14 19/19/19 20/20/20 15/15/15
f 15/15/15 20/20/20 16/16/16 11/11/11
f 16/16/16 21/21/21 22/22/22 17/17/17
f 18/18/18 23/23/23 24/24/24 19/19/19
f 19/19/19 24/24/24 25/25/25 20/20/20
f 20/20/20 25/25/25 21/21/21 16/16/16
f 21/21/21 26/26/26 27/27/27 22/22/22
f 23/23/23 28/28/28 29/29/29 24/24/24
f 24/24/24 29/29/29 30/30/30 25/25/25
f 25/25/25 30/30/30 26/26/26 21/21/21
f 26/26/26 31/31/31 32/32/32 27/27/27
f 28/28/28 33/33/33 34/34/34 29/29/29
f 29/29/29 34/34/34 35/35/35 30/30/30
f 30/30/30 35/35/35 31/31/31 26/26/26
f 31/31/31 36/36/36 37/37/37 32/32/32
f 33/33/33 38/38/38 39/39/39 34/34/34
f 34/34/34 39/39/39 40/40/40 35/35/35
f 35/35/35 40/40/40 36/36/36 31/31/31
f 36/36/36 41/41/41 42/42/42 37/37/37
f 38/38/38 43/43/43 44/44/44 39/39/39
f 39/39/39 44/44/44 45/45/45 40/40/40
f 40/40/40 45/45/45 41/41/41 36/36/36
f 86/46/46 87/47/47 47/48/48 46/49/49
f 89/50/50 90/51/51 63/52/52 62/53/53
f 90/51/51 88/54/54 48/55/55 63/52/52
f 88/54/54 86/46/46 46/49/49 48/55/55
f 46/49/49 47/48/48 64/56/56 49/57/57
f 62/53/53 63/52/52 78/58/58 65/59/59
f 63/52/52 48/55/55 82/60/60 78/58/58
f 48/55/55 46/49/49 49/57/57 82/60/60
f 49/57/57 64/56/56 51/61/61 50/62/62
f 65/59/59 78/58/58 67/63/63 66/64/64
f 78/58/58 82/60/60 52/65/65 67/63/63
f 82/60/60 49/57/57 50/62/62 52/65/65
f 50/62/62 51/61/61 68/66/66 53/67/67
f 66/64/64 67/63/63 79/68/68 69/69/69
f 67/63/63 52/65/65 83/70/70 79/68/68
f 52/65/65 50/62/62 53/67/67 83/70/70
f 53/67/67 68/66/66 55/71/71 54/72/72
f 69/69/69 79/68/68 71/73/73 70/74/74
f 79/68/68 83/70/70 56/75/75 71/73/73
f 83/70/70 53/67/67 54/72/72 56/75/75
f 54/72/72 55/71/71 72/76/76 57/77/77
f 70/74/74 71/73/73 80/78/78 73/79/79
f 71/73/73 56/75/75 84/80/80 80/78/78
f 56/75/75 54/72/72 57/77/77 84/80/80
f 57/77/77 72/76/76 59/81/81 58/82/82
f 73/79/79 80/78/78 75/83/83 74/84/84
f 80/78/78 84/80/80 60/85/85 75/83/83
f 84/80/80 57/77/77 58/82/82 60/85/85
f 58/82/82 59/81/81 76/86/86 61/87/87
f 74/84/84 75/83/83 81/88/88 77/89/89
f 75/83/83 60/85/85 85/90/90 81/88/88
f 60/85/85 58/82/82 61/87/87 85/90/90
f 41/41/91 61/87/92 76/86/93 42/42/93
f 5/10/94 88/54/95 90/51/96 4/8/97
f 32/32/98 72/76/99 55/71/100 27/27/101
f 44/44/102 81/88/103 85/90/104 45/45/105
f 45/45/105 85/90/104 61/87/92 41/41/91
f 27/27/101 55/71/100 68/66/106 22/22/106
f 28/28/107 70/74/108 73/79/109 33/33/110
f 12/12/111 64/56/112 47/48/113 7/3/114
f 4/8/97 90/51/96 89/50/115 3/5/115
f 23/23/116 69/69/116 70/74/108 28/28/107
f 2/4/117 87/47/117 86/46/118 1/1/119
f 7/3/114 47/48/113 87/47/120 2/4/120
f 8/6/121 62/53/122 65/59/123 13/13/124
f 42/42/125 76/86/125 59/81/126 37/37/127
f 1/1/119 86/46/118 88/54/95 5/10/94
f 3/5/128 89/50/128 62/53/122 8/6/121
f 37/37/127 59/81/126 72/76/99 32/32/98
f 38/38/129 74/84/130 77/89/131 43/43/131
f 22/22/106 68/66/106 51/61/132 17/17/133
f 33/33/110 73/79/109 74/84/130 38/38/129
f 17/17/133 51/61/132 64/56/112 12/12/111
f 18/18/134 66/64/135 69/69/116 23/23/116
f 43/43/136 77/89/136 81/88/103 44/44/102
f 13/13/124 65/59/123 66/64/135 18/18/134
