# 3ds Max Wavefront OBJ Exporter v0.99 - (c)2007 guruware
# File Created: 21.06.2021 19:34:22

#
# object Box001
#

v  1.1947 0.0000 100.2803
v  -13.3894 23.5538 100.2803
v  -15.1804 23.5538 100.2803
v  -29.7645 0.0000 100.2803
v  1.1947 0.0000 -49.7197
v  -13.3894 23.5538 -49.7197
v  -29.7645 0.0000 -49.7197
v  -15.1804 23.5538 -49.7197
# 8 vertices

vn 0.0000 0.0000 1.0000
vn 0.8502 0.5264 -0.0000
vn 0.0000 0.0000 -1.0000
vn -0.8502 0.5264 -0.0000
vn 0.0000 1.0000 -0.0000
# 5 vertex normals

vt 0.6548 0.3822 -0.2500
vt 0.5090 0.6178 -0.2500
vt 0.4910 0.6178 -0.2500
vt 0.3452 0.3822 -0.2500
vt 1.2500 0.3822 0.6548
vt 1.2500 0.6178 0.5090
vt -0.2500 0.6178 0.5090
vt -0.2500 0.3822 0.6548
vt 0.6548 0.3822 1.2500
vt 0.5090 0.6178 1.2500
vt 0.4910 0.6178 1.2500
vt 0.3452 0.3822 1.2500
vt 1.2500 0.3822 0.3452
vt 1.2500 0.6178 0.4910
vt -0.2500 0.6178 0.4910
vt -0.2500 0.3822 0.3452
vt 0.5090 -0.2500 0.6178
vt 0.5090 1.2500 0.6178
vt 0.4910 1.2500 0.6178
vt 0.4910 -0.2500 0.6178
# 20 texture coords

o Box001
g Box001
f 1/1/1 2/2/1 3/3/1 
f 3/3/1 4/4/1 1/1/1 
f 5/5/2 6/6/2 2/7/2 
f 2/7/2 1/8/2 5/5/2 
f 7/9/3 8/10/3 6/11/3 
f 6/11/3 5/12/3 7/9/3 
f 4/13/4 3/14/4 8/15/4 
f 8/15/4 7/16/4 4/13/4 
f 2/17/5 6/18/5 8/19/5 
f 8/19/5 3/20/5 2/17/5 
# 10 faces

