# Blender v2.93.0 OBJ File: ''
# www.blender.org
mtllib untitled.mtl
o Cube.001_Cube.003
v -36.482025 0.045997 52.416210
v -48.509148 0.045997 46.807873
v -14.665666 0.045997 5.630897
v -26.692791 0.045997 0.022553
v -42.495590 0.045997 49.612038
v -20.679230 0.045997 2.826725
v -42.229149 9.602933 49.736282
v -42.762032 9.602933 49.487804
v -20.945667 9.602933 2.702483
v -20.412788 9.602933 2.950967
v -5.560327 0.045997 -1.223243
v -5.560327 0.045997 -14.493714
v 46.061562 0.045997 -1.223244
v 46.061554 0.045997 -14.493712
v -5.560327 0.045997 -7.858479
v 46.061554 0.045997 -7.858475
v -5.560327 9.602933 -7.564494
v -5.560327 9.602933 -8.152463
v 46.061562 9.602933 -8.152463
v 46.061554 9.602933 -7.564496
v -24.211746 0.045996 -5.058901
v -21.280212 0.045996 -9.388382
v -16.923351 0.045996 -12.681601
v -11.593432 0.045997 -14.181100
v -18.695736 9.602934 -1.930787
v -16.633457 9.602933 -5.073395
v -14.133129 9.602934 -6.987204
v -10.632272 9.602934 -7.913115
v -18.184280 9.602934 -1.640746
v -16.202602 9.602933 -4.673306
v -13.874416 9.602934 -6.459215
v -10.543146 9.602934 -7.331940
v -12.668271 0.045997 1.487368
v -11.555843 0.045997 -0.358321
v -11.084194 0.045997 -0.764817
v -9.581985 0.045997 -1.063952
v -10.587711 0.045997 -7.622524
v -14.003773 0.045997 -6.723207
v -16.418028 0.045997 -4.873348
v -18.440008 0.045996 -1.785766
vt 0.375000 0.250000
vt 0.613923 0.250000
vt 0.613923 0.500000
vt 0.375000 0.500000
vt 0.125000 0.625000
vt 0.375000 0.625000
vt 0.375000 0.750000
vt 0.125000 0.750000
vt 0.125000 0.500000
vt 0.625000 0.250000
vt 0.625000 0.500000
vt 0.613923 0.750000
vt 0.613923 1.000000
vt 0.375000 1.000000
vt 0.375000 0.250000
vt 0.613923 0.250000
vt 0.613923 0.500000
vt 0.375000 0.500000
vt 0.125000 0.625000
vt 0.375000 0.625000
vt 0.375000 0.750000
vt 0.125000 0.750000
vt 0.125000 0.500000
vt 0.625000 0.250000
vt 0.625000 0.500000
vt 0.613923 0.750000
vt 0.613923 1.000000
vt 0.375000 1.000000
vt 0.175000 0.750000
vt 0.175000 0.625000
vt 0.613923 0.950000
vt 0.375000 0.950000
vt 0.613923 0.300000
vt 0.625000 0.300000
vt 0.375000 0.300000
vt 0.175000 0.500000
vt 0.375000 0.350000
vt 0.613923 0.350000
vt 0.375000 0.400000
vt 0.613923 0.400000
vt 0.375000 0.450000
vt 0.613923 0.450000
vt 0.625000 0.350000
vt 0.625000 0.400000
vt 0.625000 0.450000
vt 0.613923 0.900000
vt 0.375000 0.900000
vt 0.613923 0.850000
vt 0.375000 0.850000
vt 0.613923 0.800000
vt 0.375000 0.800000
vt 0.225000 0.750000
vt 0.225000 0.625000
vt 0.275000 0.750000
vt 0.275000 0.625000
vt 0.325000 0.750000
vt 0.325000 0.625000
vt 0.225000 0.500000
vt 0.275000 0.500000
vt 0.325000 0.500000
vn -0.7552 0.5529 -0.3521
vn 0.0000 -1.0000 0.0000
vn 0.0000 1.0000 0.0000
vn 0.7552 0.5529 0.3521
vn 0.0000 0.5529 -0.8333
vn 0.0000 0.5529 0.8333
vn 0.0363 0.5516 0.8333
vn -0.0414 0.5516 -0.8331
vn -0.2215 0.5482 -0.8065
vn -0.5065 0.5464 -0.6670
vn -0.6944 0.5499 -0.4641
vn -0.7494 0.5525 -0.3649
vn 0.1972 0.5476 0.8132
vn 0.5164 0.5463 0.6595
vn 0.7056 0.5494 0.4475
vn 0.7503 0.5525 0.3630
vn -0.4226 -0.0000 0.9063
vn 1.0000 0.0000 0.0000
usemtl None
s off
f 2/1/1 8/2/1 9/3/1 4/4/1
f 5/5/2 6/6/2 3/7/2 1/8/2
f 2/9/2 4/4/2 6/6/2 5/5/2
f 9/3/3 8/2/3 7/10/3 10/11/3
f 3/7/4 10/12/4 7/13/4 1/14/4
f 12/15/5 18/16/5 19/17/5 14/18/5
f 15/19/2 16/20/2 13/21/2 11/22/2
f 12/23/2 14/18/2 16/20/2 15/19/2
f 19/17/3 18/16/3 17/24/3 20/25/3
f 13/21/6 20/26/6 17/27/6 11/28/6
f 15/19/2 11/22/2 36/29/2 37/30/2
f 11/28/7 17/27/7 32/31/7 36/32/7
f 17/24/3 18/16/3 28/33/3 32/34/3
f 18/16/8 12/15/8 24/35/8 28/33/8
f 12/23/2 15/19/2 37/30/2 24/36/2
f 28/33/9 24/35/9 23/37/9 27/38/9
f 27/38/10 23/37/10 22/39/10 26/40/10
f 26/40/11 22/39/11 21/41/11 25/42/11
f 25/42/12 21/41/12 4/4/12 9/3/12
f 32/34/3 28/33/3 27/38/3 31/43/3
f 31/43/3 27/38/3 26/40/3 30/44/3
f 30/44/3 26/40/3 25/42/3 29/45/3
f 29/45/3 25/42/3 9/3/3 10/11/3
f 36/32/13 32/31/13 31/46/13 35/47/13
f 35/47/14 31/46/14 30/48/14 34/49/14
f 34/49/15 30/48/15 29/50/15 33/51/15
f 33/51/16 29/50/16 10/12/16 3/7/16
f 37/30/2 36/29/2 35/52/2 38/53/2
f 38/53/2 35/52/2 34/54/2 39/55/2
f 39/55/2 34/54/2 33/56/2 40/57/2
f 40/57/2 33/56/2 3/7/2 6/6/2
f 24/36/2 37/30/2 38/53/2 23/58/2
f 23/58/2 38/53/2 39/55/2 22/59/2
f 22/59/2 39/55/2 40/57/2 21/60/2
f 21/60/2 40/57/2 6/6/2 4/4/2
f 1/14/17 7/13/17 8/2/17 2/1/17 5/5/17
f 14/18/18 19/17/18 20/25/18 13/21/18 16/20/18
